# xmcd CD database file
#
# Track frame offsets:
#	150
#	21102
#	35155
#	53218
#	70747
#	87591
#	103448
#	119548
#	142449
#	159873
#	177312
#	198755
#	214221
#	233626
#	252831
#	271329
#	288808
#	304951
#
# Disc length: 4274 seconds
#
# Revision: 0
# Processed by: cddbd v1.5.1PL0 Copyright (c) Steve Scherf et al.
# Submitted via: CDex 1.51
#
DISCID=1110b012
DTITLE=As Melhores do forró acustico - forró
DYEAR=2003
DGENRE=Country
TTITLE0=Limão com Mel - Toma conta de mim
TTITLE1=Magnificus - Jogado na Rua
TTITLE2=Noda de Caju - Petalas de Neon
TTITLE3=Virus da Paixão - Porque te amo
TTITLE4=Cascavel - quando vi voce partir
TTITLE5=Cavaleiros do forro - Alô
TTITLE6=Collo de Menina - Grande historia
TTITLE7=Limão com Mel - Vivendo de Solidão
TTITLE8=Cavaleiros do forró - Avise a ela
TTITLE9=Gatinha Manhosa - Sou ou não sou
TTITLE10=Noda de Caju - Magia Branca
TTITLE11=Cascavel - Calma coração
TTITLE12=Boca de moça - Amor eterno
TTITLE13=Gatinha Manhosa - Com voce no pensamento
TTITLE14=Cascavel - Tá na cara
TTITLE15=Vírus da Paixão - Longa espera
TTITLE16=Cavaleiros do Forró - Faz amor comigo
TTITLE17=Collo de menina - Por esse amor
EXTD=YEAR: 2003
EXTT0=
EXTT1=
EXTT2=
EXTT3=
EXTT4=
EXTT5=
EXTT6=
EXTT7=
EXTT8=
EXTT9=
EXTT10=
EXTT11=
EXTT12=
EXTT13=
EXTT14=
EXTT15=
EXTT16=
EXTT17=
PLAYORDER=
